<svg width="685" height="685" viewBox="0 0 685 685" fill="none" xmlns="http://www.w3.org/2000/svg">
<path fill-rule="evenodd" clip-rule="evenodd" d="M62.2267 342.227C62.2267 187.587 187.587 62.2267 342.227 62.2267C496.867 62.2267 622.227 187.587 622.227 342.227C622.227 496.867 496.867 622.227 342.227 622.227C187.587 622.227 62.2267 496.867 62.2267 342.227ZM342.227 0C153.227 0 0 153.213 0 342.227C0 531.24 153.213 684.453 342.227 684.453C531.24 684.453 684.453 531.24 684.453 342.227C684.453 153.213 531.24 0 342.227 0V0ZM195.787 488.667C183.636 476.516 183.636 456.817 195.787 444.672L298.235 342.224L195.787 239.776C183.636 227.63 183.636 207.932 195.787 195.781C207.938 183.631 227.636 183.63 239.781 195.781L342.229 298.229L444.677 195.781C456.823 183.63 476.521 183.63 488.672 195.781C500.823 207.932 500.823 227.631 488.672 239.776L386.224 342.224L488.672 444.672C500.823 456.818 500.823 476.516 488.672 488.667C476.521 500.817 456.823 500.818 444.677 488.667L342.229 386.219L239.781 488.667C227.635 500.818 207.937 500.818 195.787 488.667V488.667Z" fill="black"/>
</svg>
