<svg width="255" height="255" viewBox="0 0 255 255" fill="none" xmlns="http://www.w3.org/2000/svg">
<path d="M127.667 0.399994C111.172 0.399994 97.8027 13.7693 97.8027 30.264V97.4613H30.6053C14.1107 97.4613 0.741333 110.831 0.741333 127.325C0.741333 143.82 14.1107 157.189 30.6053 157.189H97.8027V224.387C97.8027 240.881 111.172 254.251 127.667 254.251C144.161 254.251 157.531 240.881 157.531 224.387V157.189H224.728C241.223 157.189 254.592 143.82 254.592 127.325C254.592 110.831 241.223 97.4613 224.728 97.4613H157.531V30.264C157.531 13.7693 144.161 0.399994 127.667 0.399994Z" fill="black"/>
</svg>
